# xmcd
#
# Track frame offsets:
#	150
#	16050
#	32700
#	48600
#	63000
#	78450
#	95775
#	112050
#	125850
#	142050
#	158925
#	180450
#	194475
#
# Disc length: 2793 seconds
#
# Revision: 1
# Processed by: cddbd v1.5.1PL0 Copyright (c) Steve Scherf et al.
# Submitted via: audiograbber 1.83.01
#
DISCID=ba0ae70d
DTITLE=Dixie Chicks - RS602
DYEAR=1900
DGENRE=Karaoke
TTITLE0=You Were Mine
TTITLE1=Wide Open Spaces
TTITLE2=Tonight The Heartaches On Me
TTITLE3=There's Your Trouble
TTITLE4=Once You've Loved Somebody
TTITLE5=Never Say Die
TTITLE6=Loving Arms
TTITLE7=Let Er Rip
TTITLE8=I'll Take Care Of You
TTITLE9=I Can Love You Better
TTITLE10=Give It Up Or Let Me Go
TTITLE11=Am I The Only One
TTITLE12=Roly Poly
EXTD=
EXTT0=
EXTT1=
EXTT2=
EXTT3=
EXTT4=
EXTT5=
EXTT6=
EXTT7=
EXTT8=
EXTT9=
EXTT10=
EXTT11=
EXTT12=
PLAYORDER=
